<svg width="20" height="20" viewBox="0 0 20 20" fill="none" xmlns="http://www.w3.org/2000/svg">
<path d="M19.7051 0.33502C19.326 -0.0955629 18.7165 -0.113316 18.3185 0.294638L6.84228 12.0588C6.01646 12.9053 5.98351 14.3651 6.77007 15.2586C7.56667 16.1635 8.87155 16.1118 9.61071 15.146L19.753 1.8943C20.1 1.44091 20.079 0.759835 19.7051 0.33502Z" fill="white"/>
<path d="M5.11298 15.0627C4.23776 14.6983 3.25532 14.9902 2.6493 15.7948L0.107271 19.1696C-0.13935 19.497 0.06675 20.0021 0.446073 20L4.35605 19.9778C5.28821 19.9725 6.11926 19.3096 6.4401 18.3153C6.86431 17.0009 6.27013 15.5446 5.11298 15.0627Z" fill="white"/>
</svg>
