<svg width="20" height="20" viewBox="0 0 20 20" fill="none" xmlns="http://www.w3.org/2000/svg">
<rect width="20" height="20" fill="#E5E5E5"/>
<rect width="1440" height="1024" transform="translate(-491 -790)" fill="#121214"/>
<rect x="-20" y="-12" width="138" height="45" rx="15" fill="#202024"/>
<path fill-rule="evenodd" clip-rule="evenodd" d="M10.894 0.820323C11.9878 -0.27344 13.7611 -0.273441 14.8549 0.820322L19.1797 5.14511C20.2734 6.23887 20.2734 8.01221 19.1797 9.10597L10.0616 18.2241L19.0348 18.2241C19.5233 18.2241 19.9193 18.6201 19.9193 19.1085C19.9193 19.597 19.5233 19.993 19.0348 19.993H7.3245C7.1903 20.0025 7.05554 20.0023 6.92136 19.9926C6.88287 19.9915 6.84503 19.9879 6.80793 19.982C6.20038 19.9131 5.61107 19.6456 5.14511 19.1797L0.820321 14.8549C-0.273442 13.7611 -0.27344 11.9878 0.820323 10.894L10.894 0.820323ZM7.33286 6.96434L13.0665 12.6979L7.98699 17.7774C7.52646 18.2379 6.77979 18.2379 6.31926 17.7774L2.2534 13.7115C1.79286 13.251 1.79286 12.5043 2.2534 12.0438L7.33286 6.96434Z" fill="white"/>
</svg>
