<svg width="226" height="32" viewBox="0 0 226 32" fill="none" xmlns="http://www.w3.org/2000/svg">
<g clip-path="url(#clip0)">
<path d="M44.4324 8.17599H52.1718C53.9219 8.17599 55.4657 8.49599 56.8032 9.13828C58.1407 9.77828 59.1812 10.6949 59.9202 11.8857C60.6593 13.0766 61.0311 14.48 61.0311 16.0914C61.0311 17.7051 60.6615 19.1063 59.9202 20.2971C59.1789 21.488 58.1407 22.4046 56.8032 23.0446C55.4657 23.6846 53.9219 24.0046 52.1718 24.0046H44.4324V8.17599ZM51.9473 19.8446C53.0831 19.8446 53.9921 19.5177 54.6722 18.8617C55.3523 18.2057 55.6924 17.2823 55.6924 16.0914C55.6924 14.9006 55.3523 13.9771 54.6722 13.3211C53.9921 12.6651 53.0831 12.3383 51.9473 12.3383H49.7257V19.8469H51.9473V19.8446Z" fill="#EF233C"/>
<path d="M66.6373 23.3051C65.2907 22.5966 64.2366 21.6137 63.4749 20.3543C62.7132 19.0949 62.3301 17.6754 62.3301 16.0914C62.3301 14.5074 62.7109 13.088 63.4749 11.8286C64.2366 10.5691 65.2907 9.58628 66.6373 8.87771C67.9839 8.16914 69.5005 7.81485 71.1916 7.81485C72.8805 7.81485 74.3994 8.16914 75.7459 8.87771C77.0925 9.58628 78.1466 10.5691 78.9083 11.8286C79.67 13.088 80.0532 14.5074 80.0532 16.0914C80.0532 17.6754 79.6723 19.0949 78.9083 20.3543C78.1466 21.6137 77.0925 22.5966 75.7459 23.3051C74.3994 24.0137 72.8828 24.368 71.1916 24.368C69.5005 24.368 67.9839 24.0137 66.6373 23.3051ZM72.9734 19.5611C73.5039 19.2366 73.9256 18.7771 74.2407 18.1806C74.5558 17.5863 74.7122 16.8891 74.7122 16.0891C74.7122 15.2891 74.5558 14.592 74.2407 13.9977C73.9256 13.4034 73.5039 12.9417 72.9734 12.6171C72.443 12.2926 71.849 12.1303 71.1894 12.1303C70.5319 12.1303 69.9357 12.2926 69.4053 12.6171C68.8748 12.9417 68.4531 13.4011 68.138 13.9977C67.8252 14.5943 67.6665 15.2914 67.6665 16.0891C67.6665 16.8891 67.8229 17.5863 68.138 18.1806C68.4531 18.7771 68.8748 19.2366 69.4053 19.5611C69.9357 19.8857 70.5297 20.048 71.1894 20.048C71.849 20.048 72.443 19.8857 72.9734 19.5611Z" fill="#EF233C"/>
<path d="M85.6571 23.3051C84.3105 22.5966 83.2564 21.6137 82.4947 20.3543C81.733 19.0949 81.3499 17.6754 81.3499 16.0914C81.3499 14.5074 81.7307 13.088 82.4947 11.8286C83.2564 10.5691 84.3105 9.58628 85.6571 8.87771C87.0037 8.16914 88.5203 7.81485 90.2114 7.81485C91.9003 7.81485 93.4192 8.16914 94.7657 8.87771C96.1123 9.58628 97.1664 10.5691 97.9281 11.8286C98.6898 13.088 99.073 14.5074 99.073 16.0914C99.073 17.6754 98.6921 19.0949 97.9281 20.3543C97.1664 21.6137 96.1123 22.5966 94.7657 23.3051C93.4192 24.0137 91.9026 24.368 90.2114 24.368C88.5225 24.368 87.0037 24.0137 85.6571 23.3051ZM91.9955 19.5611C92.526 19.2366 92.9476 18.7771 93.2627 18.1806C93.5778 17.5863 93.7343 16.8891 93.7343 16.0891C93.7343 15.2891 93.5778 14.592 93.2627 13.9977C92.9476 13.4034 92.526 12.9417 91.9955 12.6171C91.465 12.2926 90.8711 12.1303 90.2114 12.1303C89.554 12.1303 88.9578 12.2926 88.4273 12.6171C87.8968 12.9417 87.4752 13.4011 87.1601 13.9977C86.8472 14.5943 86.6885 15.2914 86.6885 16.0891C86.6885 16.8891 86.845 17.5863 87.1601 18.1806C87.4752 18.7771 87.8968 19.2366 88.4273 19.5611C88.9578 19.8857 89.5517 20.048 90.2114 20.048C90.8688 20.048 91.4628 19.8857 91.9955 19.5611Z" fill="#EF233C"/>
<path d="M115.019 24.0069L114.973 16.7931L111.564 22.5829H109.231L105.822 17.04V24.0046H101V8.17599H105.35L110.464 16.6126L115.445 8.17599H119.795L119.84 24.0069H115.019V24.0069Z" fill="#EF233C"/>
<path d="M126.077 23.3051C124.73 22.5966 123.676 21.6137 122.915 20.3543C122.153 19.0949 121.77 17.6754 121.77 16.0914C121.77 14.5074 122.151 13.088 122.915 11.8286C123.676 10.5691 124.73 9.58628 126.077 8.87771C127.424 8.16914 128.94 7.81485 130.631 7.81485C132.32 7.81485 133.839 8.16914 135.186 8.87771C136.532 9.58628 137.586 10.5691 138.348 11.8286C139.11 13.088 139.493 14.5074 139.493 16.0914C139.493 17.6754 139.112 19.0949 138.348 20.3543C137.586 21.6137 136.532 22.5966 135.186 23.3051C133.839 24.0137 132.322 24.368 130.631 24.368C128.94 24.368 127.421 24.0137 126.077 23.3051ZM132.413 19.5611C132.944 19.2366 133.365 18.7771 133.68 18.1806C133.995 17.5863 134.152 16.8891 134.152 16.0891C134.152 15.2891 133.995 14.592 133.68 13.9977C133.365 13.4034 132.944 12.9417 132.413 12.6171C131.883 12.2926 131.289 12.1303 130.629 12.1303C129.972 12.1303 129.375 12.2926 128.845 12.6171C128.314 12.9417 127.893 13.4011 127.578 13.9977C127.265 14.5943 127.106 15.2914 127.106 16.0891C127.106 16.8891 127.263 17.5863 127.578 18.1806C127.893 18.7771 128.314 19.2366 128.845 19.5611C129.375 19.8857 129.969 20.048 130.629 20.048C131.286 20.048 131.88 19.8857 132.413 19.5611Z" fill="#EF233C"/>
<path d="M152.768 8.89828C153.845 9.38057 154.675 10.0754 155.257 10.9783C155.84 11.8834 156.132 12.9394 156.132 14.144C156.132 15.3509 155.84 16.4046 155.257 17.3097C154.675 18.2149 153.845 18.9074 152.768 19.3897C151.691 19.872 150.429 20.1143 148.978 20.1143H146.713V24.0046H141.42V8.17599H148.978C150.426 8.17599 151.691 8.41599 152.768 8.89828ZM150.256 15.5131C150.614 15.1886 150.794 14.7337 150.794 14.144C150.794 13.5566 150.614 13.0994 150.256 12.7749C149.898 12.4503 149.359 12.288 148.642 12.288H146.713V16H148.642C149.359 16 149.896 15.8377 150.256 15.5131Z" fill="white"/>
<path d="M173.336 8.17599V24.0069H168.043V18.1714H163.153V24.0069H157.86V8.17599H163.153V13.7829H168.043V8.17599H173.336Z" fill="white"/>
<path d="M179.57 23.3051C178.224 22.5966 177.17 21.6137 176.408 20.3543C175.646 19.0949 175.263 17.6754 175.263 16.0914C175.263 14.5074 175.644 13.088 176.408 11.8286C177.17 10.5691 178.224 9.58628 179.57 8.87771C180.917 8.16914 182.434 7.81485 184.125 7.81485C185.814 7.81485 187.332 8.16914 188.679 8.87771C190.026 9.58628 191.08 10.5691 191.841 11.8286C192.603 13.088 192.986 14.5074 192.986 16.0914C192.986 17.6754 192.605 19.0949 191.841 20.3543C191.08 21.6137 190.026 22.5966 188.679 23.3051C187.332 24.0137 185.816 24.368 184.125 24.368C182.434 24.368 180.917 24.0137 179.57 23.3051ZM185.907 19.5611C186.437 19.2366 186.859 18.7771 187.174 18.1806C187.489 17.5863 187.645 16.8891 187.645 16.0891C187.645 15.2891 187.489 14.592 187.174 13.9977C186.859 13.4034 186.437 12.9417 185.907 12.6171C185.376 12.2926 184.782 12.1303 184.122 12.1303C183.465 12.1303 182.869 12.2926 182.338 12.6171C181.808 12.9417 181.386 13.4011 181.071 13.9977C180.758 14.5943 180.6 15.2914 180.6 16.0891C180.6 16.8891 180.756 17.5863 181.071 18.1806C181.386 18.7771 181.808 19.2366 182.338 19.5611C182.869 19.8857 183.463 20.048 184.122 20.048C184.782 20.048 185.376 19.8857 185.907 19.5611Z" fill="white"/>
<path d="M210.39 8.17599V24.0069H206.039L200.073 16.816V24.0069H194.913V8.17599H199.263L205.23 15.3669V8.17599H210.39Z" fill="white"/>
<path d="M226 19.9794V24.0046H212.947V8.17599H225.71V12.2011H218.149V14.0549H224.789V17.8994H218.149V19.9794H226Z" fill="white"/>
<path d="M31.3067 7.49714C29.8105 5.09029 27.709 3.23886 25.0046 1.94286C22.2978 0.649143 19.1785 0 15.642 0H1.81357C0.811571 0 0 0.818286 0 1.82857V30.1714C0 31.1817 0.811571 32 1.81357 32H15.642C19.1785 32 22.2978 31.3531 25.0046 30.0571C27.709 28.7634 29.8105 26.9097 31.3067 24.5029C32.8029 22.096 33.551 19.2617 33.551 16C33.551 12.7383 32.8029 9.90629 31.3067 7.49714ZM9.06784 10.9714C10.0698 10.9714 10.8814 11.7897 10.8814 12.8C10.8814 13.8103 10.0698 14.6286 9.06784 14.6286C8.06584 14.6286 7.25427 13.8103 7.25427 12.8C7.25427 11.7897 8.06584 10.9714 9.06784 10.9714ZM25.3899 18.944C25.3899 19.008 25.3401 19.0583 25.2766 19.0583H22.5268V19.9063C22.5268 19.9703 22.4769 20.0206 22.4134 20.0206H20.9218C20.8583 20.0206 20.8084 19.9703 20.8084 19.9063V19.0583H17.1813V19.9063C17.1813 19.9703 17.1314 20.0206 17.0679 20.0206H15.5763C15.5128 20.0206 15.4629 19.9703 15.4629 19.9063V19.0583H11.8358V19.9063C11.8358 19.9703 11.7859 20.0206 11.7224 20.0206H10.2308C10.1673 20.0206 10.1174 19.9703 10.1174 19.9063V19.0583H7.36762C7.30414 19.0583 7.25427 19.008 7.25427 18.944V17.44C7.25427 17.376 7.30414 17.3257 7.36762 17.3257H10.1174V16.4777C10.1174 16.4137 10.1673 16.3634 10.2308 16.3634H11.7224C11.7859 16.3634 11.8358 16.4137 11.8358 16.4777V17.3257H15.4629V16.4777C15.4629 16.4137 15.5128 16.3634 15.5763 16.3634H17.0679C17.1314 16.3634 17.1813 16.4137 17.1813 16.4777V17.3257H20.8084V16.4777C20.8084 16.4137 20.8583 16.3634 20.9218 16.3634H22.4134C22.4769 16.3634 22.5268 16.4137 22.5268 16.4777V17.3257H25.2766C25.3401 17.3257 25.3899 17.376 25.3899 17.44V18.944ZM23.5764 14.6286C22.5744 14.6286 21.7628 13.8103 21.7628 12.8C21.7628 11.7897 22.5744 10.9714 23.5764 10.9714C24.5784 10.9714 25.3899 11.7897 25.3899 12.8C25.3899 13.8103 24.5784 14.6286 23.5764 14.6286Z" fill="white"/>
</g>
<defs>
<clipPath id="clip0">
<rect width="226" height="32" fill="white"/>
</clipPath>
</defs>
</svg>
