<svg width="20" height="19" viewBox="0 0 20 19" fill="none" xmlns="http://www.w3.org/2000/svg">
<path d="M0.0341797 10.6225C0.387922 7.2311 3.60035 4.75046 7.18777 4.75046H12.5002V1.78178C12.5002 1.55378 12.6377 1.34597 12.8539 1.24623C13.0714 1.14767 13.3276 1.17379 13.5151 1.31748L19.765 6.06737C19.9138 6.18137 20 6.35118 20 6.53167C20 6.71217 19.9138 6.88198 19.7663 6.99598L13.5164 11.7459C13.4026 11.8314 13.2639 11.8753 13.1251 11.8753C13.0326 11.8753 12.9402 11.8563 12.8539 11.8171C12.6377 11.7174 12.5002 11.5096 12.5002 11.2816V8.31288H7.05528C5.42031 8.31288 3.93034 9.42911 3.7666 10.974C3.57785 12.7505 5.04407 14.2503 6.87528 14.2503H11.8752C12.2202 14.2503 12.5002 14.5162 12.5002 14.844V17.2189C12.5002 17.5467 12.2202 17.8127 11.8752 17.8127H6.87528C2.85912 17.8127 -0.369562 14.5151 0.0341797 10.6225Z" fill="white"/>
</svg>
