<svg width="20" height="19" viewBox="0 0 20 19" fill="none" xmlns="http://www.w3.org/2000/svg">
<g clip-path="url(#clip0)">
<path d="M19.9658 10.6225C19.6121 7.2311 16.3996 4.75046 12.8122 4.75046L7.49984 4.75046L7.49984 1.78178C7.49984 1.55378 7.36234 1.34597 7.1461 1.24623C6.9286 1.14767 6.67236 1.17379 6.48486 1.31747L0.234995 6.06737C0.0862486 6.18137 4.69788e-07 6.35118 4.86208e-07 6.53167C5.02629e-07 6.71217 0.0862487 6.88198 0.233745 6.99598L6.48361 11.7459C6.59736 11.8314 6.73611 11.8753 6.87485 11.8753C6.96735 11.8753 7.05985 11.8563 7.1461 11.8171C7.36234 11.7174 7.49984 11.5096 7.49984 11.2816L7.49984 8.31289L12.9447 8.31288C14.5797 8.31288 16.0697 9.42911 16.2334 10.974C16.4221 12.7505 14.9559 14.2503 13.1247 14.2503L8.12483 14.2503C7.77983 14.2503 7.49984 14.5163 7.49984 14.844L7.49984 17.2189C7.49984 17.5467 7.77983 17.8127 8.12483 17.8127L13.1247 17.8127C17.1409 17.8127 20.3696 14.5151 19.9658 10.6225Z" fill="white"/>
</g>
<defs>
<clipPath id="clip0">
<rect width="20" height="19" fill="white"/>
</clipPath>
</defs>
</svg>
